{
    "asset" : {
        "generator" : "Khronos glTF Blender I/O v1.6.16",
        "version" : "2.0"
    },
    "scene" : 0,
    "scenes" : [
        {
            "name" : "Scene",
            "nodes" : [
                0,
                1,
                2,
                3,
                4,
                5
            ]
        }
    ],
    "nodes" : [
        {
            "name" : "Sun",
            "rotation" : [
                0.08088177442550659,
                -0.26038703322410583,
                -0.15507711470127106,
                0.949530303478241
            ],
            "translation" : [
                1.1558990478515625,
                16.908798217773438,
                3.6861767768859863
            ]
        },
        {
            "name" : "Camera",
            "rotation" : [
                0.253237247467041,
                -0.734991192817688,
                0.5146463513374329,
                0.3616601824760437
            ],
            "translation" : [
                -57.365516662597656,
                14.620617866516113,
                -26.381752014160156
            ]
        },
        {
            "mesh" : 0,
            "name" : "Cube.001",
            "scale" : [
                0.3296680450439453,
                1,
                1
            ],
            "translation" : [
                -2.713216543197632,
                5.75575065612793,
                -4.248682022094727
            ]
        },
        {
            "mesh" : 1,
            "name" : "Cylinder",
            "rotation" : [
                0.5266945958137512,
                0,
                0,
                -0.8500546216964722
            ],
            "scale" : [
                2,
                1.2851618528366089,
                2
            ],
            "translation" : [
                -0.19108374416828156,
                6.560399055480957,
                -3.1090455055236816
            ]
        },
        {
            "mesh" : 2,
            "name" : "Cylinder.001",
            "rotation" : [
                0,
                0,
                0.7071068286895752,
                0.7071068286895752
            ],
            "scale" : [
                1.58275306224823,
                0.6417215466499329,
                1.58275306224823
            ],
            "translation" : [
                -3.8988442420959473,
                1.2732715606689453,
                1.1642651557922363
            ]
        },
        {
            "mesh" : 3,
            "name" : "Cylinder.002",
            "rotation" : [
                0,
                0,
                0.7071068286895752,
                0.7071068286895752
            ],
            "scale" : [
                1.58275306224823,
                0.6417215466499329,
                1.58275306224823
            ],
            "translation" : [
                -3.8988442420959473,
                1.0282320976257324,
                -5.8928656578063965
            ]
        }
    ],
    "materials" : [
        {
            "doubleSided" : true,
            "name" : "Material.002",
            "normalTexture" : {
                "index" : 0
            },
            "pbrMetallicRoughness" : {
                "baseColorTexture" : {
                    "index" : 1
                },
                "metallicFactor" : 0
            }
        },
        {
            "doubleSided" : true,
            "name" : "Material.001",
            "pbrMetallicRoughness" : {
                "baseColorFactor" : [
                    0.018539605662226677,
                    0.018539605662226677,
                    0.018539605662226677,
                    1
                ],
                "metallicFactor" : 0,
                "roughnessFactor" : 0.47727271914482117
            }
        },
        {
            "doubleSided" : true,
            "name" : "Material.003",
            "pbrMetallicRoughness" : {
                "baseColorFactor" : [
                    0.018848661333322525,
                    0.018848661333322525,
                    0.018848661333322525,
                    1
                ],
                "metallicFactor" : 0
            }
        }
    ],
    "meshes" : [
        {
            "name" : "Cube.002",
            "primitives" : [
                {
                    "attributes" : {
                        "POSITION" : 0,
                        "NORMAL" : 1,
                        "TEXCOORD_0" : 2
                    },
                    "indices" : 3,
                    "material" : 0
                }
            ]
        },
        {
            "name" : "Cylinder.001",
            "primitives" : [
                {
                    "attributes" : {
                        "POSITION" : 4,
                        "NORMAL" : 5,
                        "TEXCOORD_0" : 6
                    },
                    "indices" : 7,
                    "material" : 1
                }
            ]
        },
        {
            "name" : "Cylinder.005",
            "primitives" : [
                {
                    "attributes" : {
                        "POSITION" : 8,
                        "NORMAL" : 9,
                        "TEXCOORD_0" : 10
                    },
                    "indices" : 11,
                    "material" : 2
                }
            ]
        },
        {
            "name" : "Cylinder.006",
            "primitives" : [
                {
                    "attributes" : {
                        "POSITION" : 12,
                        "NORMAL" : 13,
                        "TEXCOORD_0" : 14
                    },
                    "indices" : 11,
                    "material" : 2
                }
            ]
        }
    ],
    "textures" : [
        {
            "sampler" : 0,
            "source" : 0
        },
        {
            "sampler" : 0,
            "source" : 1
        }
    ],
    "images" : [
        {
            "bufferView" : 4,
            "mimeType" : "image/jpeg",
            "name" : "Wood051_1K_Normal"
        },
        {
            "bufferView" : 5,
            "mimeType" : "image/jpeg",
            "name" : "Wood051_1K_Color"
        }
    ],
    "accessors" : [
        {
            "bufferView" : 0,
            "componentType" : 5126,
            "count" : 287,
            "max" : [
                16.322416305541992,
                1,
                6.793962478637695
            ],
            "min" : [
                -1,
                -5.142335414886475,
                -2.770325183868408
            ],
            "type" : "VEC3"
        },
        {
            "bufferView" : 1,
            "componentType" : 5126,
            "count" : 287,
            "type" : "VEC3"
        },
        {
            "bufferView" : 2,
            "componentType" : 5126,
            "count" : 287,
            "type" : "VEC2"
        },
        {
            "bufferView" : 3,
            "componentType" : 5123,
            "count" : 516,
            "type" : "SCALAR"
        },
        {
            "bufferView" : 6,
            "componentType" : 5126,
            "count" : 11310,
            "max" : [
                1.540808916091919,
                11.27673625946045,
                0.9431465268135071
            ],
            "min" : [
                -1.521639108657837,
                -5.268693447113037,
                -1.0568535327911377
            ],
            "type" : "VEC3"
        },
        {
            "bufferView" : 7,
            "componentType" : 5126,
            "count" : 11310,
            "type" : "VEC3"
        },
        {
            "bufferView" : 8,
            "componentType" : 5126,
            "count" : 11310,
            "type" : "VEC2"
        },
        {
            "bufferView" : 9,
            "componentType" : 5123,
            "count" : 17712,
            "type" : "SCALAR"
        },
        {
            "bufferView" : 10,
            "componentType" : 5126,
            "count" : 2864,
            "max" : [
                0.9980268478393555,
                1.8448891639709473,
                1.0000001192092896
            ],
            "min" : [
                -0.9980270266532898,
                -13.413293838500977,
                -1.0000001192092896
            ],
            "type" : "VEC3"
        },
        {
            "bufferView" : 11,
            "componentType" : 5126,
            "count" : 2864,
            "type" : "VEC3"
        },
        {
            "bufferView" : 12,
            "componentType" : 5126,
            "count" : 2864,
            "type" : "VEC2"
        },
        {
            "bufferView" : 13,
            "componentType" : 5123,
            "count" : 4776,
            "type" : "SCALAR"
        },
        {
            "bufferView" : 14,
            "componentType" : 5126,
            "count" : 2864,
            "max" : [
                0.9980268478393555,
                1.8448891639709473,
                1.0000001192092896
            ],
            "min" : [
                -0.9980270266532898,
                -13.413293838500977,
                -1.0000001192092896
            ],
            "type" : "VEC3"
        },
        {
            "bufferView" : 15,
            "componentType" : 5126,
            "count" : 2864,
            "type" : "VEC3"
        },
        {
            "bufferView" : 16,
            "componentType" : 5126,
            "count" : 2864,
            "type" : "VEC2"
        }
    ],
    "bufferViews" : [
        {
            "buffer" : 0,
            "byteLength" : 3444,
            "byteOffset" : 0
        },
        {
            "buffer" : 0,
            "byteLength" : 3444,
            "byteOffset" : 3444
        },
        {
            "buffer" : 0,
            "byteLength" : 2296,
            "byteOffset" : 6888
        },
        {
            "buffer" : 0,
            "byteLength" : 1032,
            "byteOffset" : 9184
        },
        {
            "buffer" : 0,
            "byteLength" : 1399619,
            "byteOffset" : 10216
        },
        {
            "buffer" : 0,
            "byteLength" : 848736,
            "byteOffset" : 1409836
        },
        {
            "buffer" : 0,
            "byteLength" : 135720,
            "byteOffset" : 2258572
        },
        {
            "buffer" : 0,
            "byteLength" : 135720,
            "byteOffset" : 2394292
        },
        {
            "buffer" : 0,
            "byteLength" : 90480,
            "byteOffset" : 2530012
        },
        {
            "buffer" : 0,
            "byteLength" : 35424,
            "byteOffset" : 2620492
        },
        {
            "buffer" : 0,
            "byteLength" : 34368,
            "byteOffset" : 2655916
        },
        {
            "buffer" : 0,
            "byteLength" : 34368,
            "byteOffset" : 2690284
        },
        {
            "buffer" : 0,
            "byteLength" : 22912,
            "byteOffset" : 2724652
        },
        {
            "buffer" : 0,
            "byteLength" : 9552,
            "byteOffset" : 2747564
        },
        {
            "buffer" : 0,
            "byteLength" : 34368,
            "byteOffset" : 2757116
        },
        {
            "buffer" : 0,
            "byteLength" : 34368,
            "byteOffset" : 2791484
        },
        {
            "buffer" : 0,
            "byteLength" : 22912,
            "byteOffset" : 2825852
        }
    ],
    "samplers" : [
        {
            "magFilter" : 9729,
            "minFilter" : 9987
        }
    ],
    "buffers" : [
        {
            "byteLength" : 2848764,
            "uri" : "data:application/octet-stream;base64,"
        }
    ]
}
